# Pocket Knife - converted from the bundled Blockbench model for NeoForge 1.21.1
mtllib pocket_knife.mtl
o pocket_knife
v 0.45801241 0.24759607 0.48437500
v 0.45801241 0.24759607 0.51562500
v 0.40495267 0.62513577 0.51562500
v 0.40495267 0.62513577 0.48437500
v 0.59417427 0.26673238 0.48437500
v 0.54111453 0.64427207 0.48437500
v 0.54111453 0.64427207 0.51562500
v 0.59417427 0.26673238 0.51562500
v 0.45801241 0.24759607 0.48437500
v 0.59417427 0.26673238 0.48437500
v 0.59417427 0.26673238 0.51562500
v 0.45801241 0.24759607 0.51562500
v 0.40495267 0.62513577 0.48437500
v 0.40495267 0.62513577 0.51562500
v 0.54111453 0.64427207 0.51562500
v 0.54111453 0.64427207 0.48437500
v 0.45801241 0.24759607 0.48437500
v 0.40495267 0.62513577 0.48437500
v 0.54111453 0.64427207 0.48437500
v 0.59417427 0.26673238 0.48437500
v 0.45801241 0.24759607 0.51562500
v 0.59417427 0.26673238 0.51562500
v 0.54111453 0.64427207 0.51562500
v 0.40495267 0.62513577 0.51562500
v 0.55668382 0.71264370 0.49062500
v 0.55668382 0.71264370 0.50937500
v 0.53199431 0.59648866 0.50937500
v 0.53199431 0.59648866 0.49062500
v 0.43135866 0.73928237 0.49062500
v 0.40666915 0.62312734 0.49062500
v 0.40666915 0.62312734 0.50937500
v 0.43135866 0.73928237 0.50937500
v 0.55668382 0.71264370 0.49062500
v 0.43135866 0.73928237 0.49062500
v 0.43135866 0.73928237 0.50937500
v 0.55668382 0.71264370 0.50937500
v 0.53199431 0.59648866 0.49062500
v 0.53199431 0.59648866 0.50937500
v 0.40666915 0.62312734 0.50937500
v 0.40666915 0.62312734 0.49062500
v 0.55668382 0.71264370 0.49062500
v 0.53199431 0.59648866 0.49062500
v 0.40666915 0.62312734 0.49062500
v 0.43135866 0.73928237 0.49062500
v 0.55668382 0.71264370 0.50937500
v 0.43135866 0.73928237 0.50937500
v 0.40666915 0.62312734 0.50937500
v 0.53199431 0.59648866 0.50937500
v 0.52199365 0.78554463 0.50000000
v 0.52199365 0.78554463 0.50000000
v 0.55761131 0.71251761 0.50000000
v 0.55761131 0.71251761 0.50000000
v 0.43211425 0.74170753 0.50000000
v 0.46773190 0.66868050 0.50000000
v 0.46773190 0.66868050 0.50000000
v 0.43211425 0.74170753 0.50000000
v 0.52199365 0.78554463 0.50000000
v 0.43211425 0.74170753 0.50000000
v 0.43211425 0.74170753 0.50000000
v 0.52199365 0.78554463 0.50000000
v 0.55761131 0.71251761 0.50000000
v 0.55761131 0.71251761 0.50000000
v 0.46773190 0.66868050 0.50000000
v 0.46773190 0.66868050 0.50000000
v 0.52199365 0.78554463 0.50000000
v 0.55761131 0.71251761 0.50000000
v 0.46773190 0.66868050 0.50000000
v 0.43211425 0.74170753 0.50000000
v 0.52199365 0.78554463 0.50000000
v 0.43211425 0.74170753 0.50000000
v 0.46773190 0.66868050 0.50000000
v 0.55761131 0.71251761 0.50000000
v 0.55942967 0.33953895 0.49062500
v 0.55942967 0.33953895 0.50937500
v 0.59504733 0.26651193 0.50937500
v 0.59504733 0.26651193 0.49062500
v 0.45269788 0.28748238 0.49062500
v 0.48831554 0.21445537 0.49062500
v 0.48831554 0.21445537 0.50937500
v 0.45269788 0.28748238 0.50937500
v 0.55942967 0.33953895 0.49062500
v 0.45269788 0.28748238 0.49062500
v 0.45269788 0.28748238 0.50937500
v 0.55942967 0.33953895 0.50937500
v 0.59504733 0.26651193 0.49062500
v 0.59504733 0.26651193 0.50937500
v 0.48831554 0.21445537 0.50937500
v 0.48831554 0.21445537 0.49062500
v 0.55942967 0.33953895 0.49062500
v 0.59504733 0.26651193 0.49062500
v 0.48831554 0.21445537 0.49062500
v 0.45269788 0.28748238 0.49062500
v 0.55942967 0.33953895 0.50937500
v 0.45269788 0.28748238 0.50937500
v 0.48831554 0.21445537 0.50937500
v 0.59504733 0.26651193 0.50937500
vt 0.18750000 0.75000000
vt 0.25000000 0.75000000
vt 0.25000000 0.25000000
vt 0.18750000 0.25000000
vt 0.12500000 0.25000000
vt 0.18750000 0.25000000
vt 0.18750000 0.75000000
vt 0.12500000 0.75000000
vt 0.25000000 0.43750000
vt 0.25000000 0.31250000
vt 0.12500000 0.31250000
vt 0.12500000 0.43750000
vt 0.12500000 0.56250000
vt 0.12500000 0.68750000
vt 0.25000000 0.68750000
vt 0.25000000 0.56250000
vt 0.18750000 0.25000000
vt 0.12500000 0.25000000
vt 0.12500000 0.75000000
vt 0.18750000 0.75000000
vt 0.25000000 0.25000000
vt 0.18750000 0.25000000
vt 0.18750000 0.75000000
vt 0.25000000 0.75000000
vt 0.75000000 0.12500000
vt 0.62500000 0.12500000
vt 0.62500000 0.50000000
vt 0.75000000 0.50000000
vt 0.75000000 0.12500000
vt 0.75000000 0.50000000
vt 0.62500000 0.50000000
vt 0.62500000 0.12500000
vt 0.75000000 0.12500000
vt 0.75000000 0.00000000
vt 0.50000000 0.00000000
vt 0.50000000 0.12500000
vt 0.25000000 0.87500000
vt 0.25000000 1.00000000
vt 0.50000000 1.00000000
vt 0.50000000 0.87500000
vt 0.75000000 0.87500000
vt 0.50000000 0.87500000
vt 0.50000000 1.00000000
vt 0.75000000 1.00000000
vt 0.75000000 0.87500000
vt 0.50000000 0.87500000
vt 0.50000000 1.00000000
vt 0.75000000 1.00000000
vt 0.25000000 0.37500000
vt 0.25000000 0.50000000
vt 0.75000000 0.50000000
vt 0.75000000 0.37500000
vt 0.75000000 0.37500000
vt 0.75000000 0.50000000
vt 0.25000000 0.50000000
vt 0.25000000 0.37500000
vt 0.50000000 0.62500000
vt 0.50000000 0.50000000
vt 0.25000000 0.50000000
vt 0.25000000 0.62500000
vt 0.25000000 0.87500000
vt 0.25000000 1.00000000
vt 0.50000000 1.00000000
vt 0.50000000 0.87500000
vt 0.00000000 0.81250000
vt 0.00000000 0.81250000
vt 0.00000000 0.93750000
vt 0.00000000 0.93750000
vt 0.00000000 0.81250000
vt 0.00000000 0.81250000
vt 0.00000000 0.93750000
vt 0.00000000 0.93750000
vt 0.75000000 0.00000000
vt 0.75000000 0.12500000
vt 1.00000000 0.12500000
vt 1.00000000 0.00000000
vt 1.00000000 0.00000000
vt 1.00000000 0.12500000
vt 0.75000000 0.12500000
vt 0.75000000 0.00000000
vt 0.50000000 0.62500000
vt 0.50000000 0.50000000
vt 0.25000000 0.50000000
vt 0.25000000 0.62500000
vt 0.75000000 0.56250000
vt 0.75000000 0.68750000
vt 1.00000000 0.68750000
vt 1.00000000 0.56250000
vt 0.87500000 0.68750000
vt 0.81250000 0.68750000
vt 0.81250000 0.81250000
vt 0.87500000 0.81250000
vt 0.81250000 0.68750000
vt 0.87500000 0.68750000
vt 0.87500000 0.81250000
vt 0.81250000 0.81250000
vn -0.99026807 -0.13917310 0.00000000
vn 0.99026807 0.13917310 0.00000000
vn 0.13917310 -0.99026807 0.00000000
vn -0.13917310 0.99026807 0.00000000
vn 0.00000000 0.00000000 -1.00000000
vn 0.00000000 0.00000000 1.00000000
vn 0.97814760 -0.20791169 0.00000000
vn -0.97814760 0.20791169 0.00000000
vn 0.20791169 0.97814760 0.00000000
vn -0.20791169 -0.97814760 0.00000000
vn 0.00000000 0.00000000 -1.00000000
vn 0.00000000 0.00000000 1.00000000
vn 0.00000000 0.00000000 -0.00000000
vn 0.00000000 0.00000000 0.00000000
vn 0.00000000 0.00000000 0.00000000
vn 0.00000000 -0.00000000 0.00000000
vn 0.00000000 -0.00000000 -1.00000000
vn 0.00000000 0.00000000 1.00000000
vn 0.89879405 0.43837115 -0.00000000
vn -0.89879405 -0.43837115 0.00000000
vn -0.43837115 0.89879405 0.00000000
vn 0.43837115 -0.89879405 0.00000000
vn 0.00000000 -0.00000000 -1.00000000
vn 0.00000000 0.00000000 1.00000000
s 0
usemtl PocketKnife
g element_0_north
f 1/1/1 2/2/1 3/3/1 4/4/1
g element_0_south
f 5/5/2 6/6/2 7/7/2 8/8/2
g element_0_west
f 9/9/3 10/10/3 11/11/3 12/12/3
g element_0_east
f 13/13/4 14/14/4 15/15/4 16/16/4
g element_0_down
f 17/17/5 18/18/5 19/19/5 20/20/5
g element_0_up
f 21/21/6 22/22/6 23/23/6 24/24/6
g element_1_north
f 25/25/7 26/26/7 27/27/7 28/28/7
g element_1_south
f 29/29/8 30/30/8 31/31/8 32/32/8
g element_1_west
f 33/33/9 34/34/9 35/35/9 36/36/9
g element_1_east
f 37/37/10 38/38/10 39/39/10 40/40/10
g element_1_down
f 41/41/11 42/42/11 43/43/11 44/44/11
g element_1_up
f 45/45/12 46/46/12 47/47/12 48/48/12
g element_2_north
f 49/49/13 50/50/13 51/51/13 52/52/13
g element_2_south
f 53/53/14 54/54/14 55/55/14 56/56/14
g element_2_west
f 57/57/15 58/58/15 59/59/15 60/60/15
g element_2_east
f 61/61/16 62/62/16 63/63/16 64/64/16
g element_2_down
f 65/65/17 66/66/17 67/67/17 68/68/17
g element_2_up
f 69/69/18 70/70/18 71/71/18 72/72/18
g element_3_north
f 73/73/19 74/74/19 75/75/19 76/76/19
g element_3_south
f 77/77/20 78/78/20 79/79/20 80/80/20
g element_3_west
f 81/81/21 82/82/21 83/83/21 84/84/21
g element_3_east
f 85/85/22 86/86/22 87/87/22 88/88/22
g element_3_down
f 89/89/23 90/90/23 91/91/23 92/92/23
g element_3_up
f 93/93/24 94/94/24 95/95/24 96/96/24
